<svg xmlns="http://www.w3.org/2000/svg" xmlns:xlink="http://www.w3.org/1999/xlink" id="Group_165576" data-name="Group 165576" width="250.042" height="343.103" viewBox="0 0 250.042 343.103"><defs><clipPath id="clip-path"><rect id="Rectangle_149237" data-name="Rectangle 149237" width="250.042" height="343.103" fill="none"></rect></clipPath><clipPath id="clip-path-2"><path id="Path_25492" data-name="Path 25492" d="M26.927,74.286c0,10.356,23.872,18.756,53.3,18.756,29.441,0,53.3-8.4,53.3-18.756s-23.861-18.758-53.3-18.758c-29.425,0-53.3,8.395-53.3,18.758" transform="translate(-26.927 -55.528)" fill="none"></path></clipPath></defs><g id="Group_165571" data-name="Group 165571"><g id="Group_165570" data-name="Group 165570" clip-path="url(#clip-path)"><path id="Path_25484" data-name="Path 25484" d="M125.109,250.395c68.723,0,124.933-56.22,124.933-125.114C250.042,56.214,193.833,0,125.109,0,56.214,0,0,56.214,0,125.28c0,68.895,56.214,125.114,125.109,125.114" fill="#93d73b" fill-rule="evenodd"></path><path id="Path_25485" data-name="Path 25485" d="M95.1,195.9l-40.919.464-23.7-150.1s8.867-18.563,43.2-18.239c34.051.314,44.654,18.866,44.654,18.866Z" transform="translate(49.86 45.82)" fill="#231f20"></path><path id="Path_25486" data-name="Path 25486" d="M86.181,27.174a24.3,24.3,0,1,1-24.3-24.309,24.3,24.3,0,0,1,24.3,24.309" transform="translate(61.468 4.686)" fill="#231f20"></path><path id="Path_25487" data-name="Path 25487" d="M98.465,22.907C52.4,22.907,15.058,54.3,15.058,93.025c0,28.184,19.792,52.485,48.32,63.618-17.24-9.576-28.619-26.022-28.619-44.7,0-29.57,28.518-53.555,63.705-53.555s63.705,23.985,63.705,53.555c0,18.682-11.373,35.129-28.613,44.7,28.532-11.139,48.315-35.434,48.315-63.618,0-38.726-37.343-70.118-83.407-70.118" transform="translate(24.63 37.469)" fill="#231f20"></path><path id="Path_25488" data-name="Path 25488" d="M159.942,101.241c0,34.248-31.159,65.163-69.6,65.163s-69.6-30.914-69.6-65.163c0-34.267,31.162-49.97,69.6-49.976s69.6,15.719,69.6,49.976" transform="translate(33.928 83.855)" fill="#231f20"></path><path id="Path_25489" data-name="Path 25489" d="M133.526,74.289c0,10.353-23.861,18.753-53.3,18.753s-53.3-8.4-53.3-18.753S50.8,55.528,80.224,55.528s53.3,8.4,53.3,18.761" transform="translate(44.045 90.828)" fill="#fff"></path></g></g><g id="Group_165573" data-name="Group 165573" transform="translate(70.972 146.356)"><g id="Group_165572" data-name="Group 165572" clip-path="url(#clip-path-2)"><path id="Path_25490" data-name="Path 25490" d="M132.548,77.207c0,10.25-23.59,18.547-52.7,18.547s-52.693-8.3-52.693-18.547S50.752,58.662,79.85,58.662s52.7,8.305,52.7,18.545" transform="translate(-26.551 -50.402)" fill="#231f20"></path><path id="Path_25491" data-name="Path 25491" d="M136.494,80.221c0,10.717-24.683,19.407-55.134,19.407s-55.128-8.69-55.128-19.407,24.683-19.4,55.128-19.4,55.134,8.69,55.134,19.4" transform="translate(-28.064 -46.877)" fill="#fff"></path></g></g><g id="Group_165575" data-name="Group 165575"><g id="Group_165574" data-name="Group 165574" clip-path="url(#clip-path)"><path id="Path_25493" data-name="Path 25493" d="M8.41,133.992c0,.917-.153,1.065-1.015,1.065H2.624c-.862,0-1.067-.148-1.067-1.065V101.359c0-.912.206-1.065,1.067-1.065H19.272c1.015,0,1.27.1,1.27.561a2.179,2.179,0,0,1-.156.7l-.962,3.4a1.034,1.034,0,0,1-1.17.809H8.41v8.376h8.627c.915,0,1.067.153,1.067,1.065v3.35c0,.912-.2,1.073-1.067,1.073H8.41Z" transform="translate(2.547 164.052)" fill="#231f20"></path><path id="Path_25494" data-name="Path 25494" d="M15.762,133.992c-.2.917-.3,1.065-1.065,1.065H9.568c-.659,0-.965-.1-1.012-.453a4.155,4.155,0,0,1,.2-.865l10-32.683c.2-.664.253-.762,1.118-.762h5.274c.762,0,.865.206,1.07.814l9.947,32.733a4.893,4.893,0,0,1,.2.814c0,.3-.506.4-1.015.4H29.668c-.509,0-.609-.148-.862-1.065l-2.235-8.221H17.842Zm7.459-21.518c-.456-1.977-.862-4.974-1.115-7.1H22a54.83,54.83,0,0,1-1.165,7.1L18.6,121.206h6.7Z" transform="translate(13.995 164.052)" fill="#231f20"></path><path id="Path_25495" data-name="Path 25495" d="M35.166,133.992c0,.917-.2,1.065-1.065,1.065H21.666c-.862,0-1.065-.148-1.065-1.065v-2.738c0-.912.2-1.065,1.065-1.065H24.46V105.167H21.666c-.862,0-1.065-.158-1.065-1.07v-2.738c0-.912.2-1.065,1.065-1.065H34.1c.865,0,1.065.153,1.065,1.065V104.1c0,.912-.2,1.07-1.065,1.07H31.31v25.021H34.1c.865,0,1.065.153,1.065,1.065Z" transform="translate(33.697 164.052)" fill="#231f20"></path><path id="Path_25496" data-name="Path 25496" d="M35.075,133.992c0,.917-.2,1.067-1.065,1.067H29.289c-.862,0-1.067-.15-1.067-1.067v-32.63c0-.912.206-1.067,1.067-1.067H37.51c3.906,0,11.824.258,11.824,9.8,0,6.547-3.906,8.426-5.785,9.386l7.564,13.553a2.321,2.321,0,0,1,.4.962c0,.306-.506.464-1.012.614l-4.265,1.215a3.488,3.488,0,0,1-.709.1c-.256,0-.662-.609-1.168-1.576L37.51,120.7H35.075Zm1.32-18.619c3.3,0,6.088-.514,6.088-5.179,0-4.423-2.891-4.57-5.532-4.57H35.075v9.749Z" transform="translate(46.163 164.052)" fill="#231f20"></path><path id="Path_25497" data-name="Path 25497" d="M57.507,133.992c0,.917-.206,1.065-1.067,1.065H51.719c-.862,0-1.067-.148-1.067-1.065V106.382H44c-.712,0-.862-.148-.862-.859v-4.37c0-.706.15-.859.862-.859H64.916c1.012,0,1.265.1,1.265.561a2.221,2.221,0,0,1-.15.7l-1.065,4.012a.993.993,0,0,1-1.168.812H57.507Z" transform="translate(70.568 164.052)" fill="#231f20"></path><path id="Path_25498" data-name="Path 25498" d="M60.247,133.992c0,.917-.2,1.067-1.065,1.067H54.464c-.862,0-1.07-.15-1.07-1.067v-32.63c0-.912.208-1.067,1.07-1.067h8.223c3.906,0,11.821.258,11.821,9.8,0,6.547-3.906,8.426-5.783,9.386l7.562,13.553a2.326,2.326,0,0,1,.406.962c0,.306-.509.464-1.012.614l-4.27,1.215a3.411,3.411,0,0,1-.706.1c-.256,0-.662-.609-1.173-1.576L62.687,120.7H60.247Zm1.323-18.619c3.3,0,6.091-.514,6.091-5.179,0-4.423-2.9-4.57-5.535-4.57H60.247v9.749Z" transform="translate(87.337 164.052)" fill="#231f20"></path><path id="Path_25499" data-name="Path 25499" d="M70.7,133.992c-.2.917-.306,1.065-1.067,1.065H64.5c-.659,0-.962-.1-1.012-.453a4.152,4.152,0,0,1,.206-.865l10-32.683c.2-.664.25-.762,1.118-.762h5.274c.764,0,.867.206,1.067.814L91.1,133.841a4.444,4.444,0,0,1,.206.814c0,.3-.506.4-1.012.4H84.6c-.506,0-.609-.148-.862-1.065l-2.232-8.221H72.775Zm7.462-21.518c-.459-1.977-.865-4.974-1.118-7.1h-.1a54.834,54.834,0,0,1-1.168,7.1l-2.235,8.732h6.7Z" transform="translate(103.849 164.052)" fill="#231f20"></path><path id="Path_25500" data-name="Path 25500" d="M84.937,100.294c9.689,0,14.768,3.144,14.768,17.2,0,14.568-5.888,17.559-14.921,17.559h-7.77c-.859,0-1.062-.2-1.062-1.065V101.359c0-.912.2-1.065,1.115-1.065Zm-.308,29.285c5.735,0,7.865-2.491,7.865-12.18,0-9.085-2.18-11.629-7.865-11.629H82.8v23.808Z" transform="translate(124.235 164.052)" fill="#231f20"></path><path id="Path_25501" data-name="Path 25501" d="M105.927,133.992c0,.917-.153,1.065-1.015,1.065h-16.7c-.865,0-1.065-.148-1.065-1.065V101.359c0-.912.2-1.065,1.065-1.065h16.65c1.012,0,1.268.1,1.268.561a2.3,2.3,0,0,1-.15.7l-.967,3.4a1.032,1.032,0,0,1-1.165.809H94v8.376h8.627c.915,0,1.065.153,1.065,1.065v3.35c0,.912-.2,1.073-1.065,1.073H94v9.945h10.862c.909,0,1.062.15,1.062,1.065Z" transform="translate(142.552 164.052)" fill="#231f20"></path><path id="Path_25502" data-name="Path 25502" d="M28.582,148.813a1.629,1.629,0,0,1,.256.762c0,.859-3.453,3.245-8.426,3.245-8.882,0-13.144-5.788-13.144-17.968,0-11.671,4.365-18.521,13.144-18.521,3.806,0,8.326,2.789,8.326,3.759a1.111,1.111,0,0,1-.256.762L26.6,123.687c-.2.308-.406.5-.606.5-.867,0-2.538-2.383-5.229-2.383-4.365,0-6.3,3-6.3,11.726,0,8.629,1.07,13.806,6.3,13.806,2.841,0,4.67-1.877,5.683-1.877.206,0,.356.153.559.5Z" transform="translate(11.887 190.283)" fill="#231f20"></path><path id="Path_25503" data-name="Path 25503" d="M36.072,150.355c0,.917-.153,1.07-1.015,1.07H18.36c-.865,0-1.065-.153-1.065-1.07V117.723c0-.912.2-1.065,1.065-1.065H35.007c1.012,0,1.268.1,1.268.561a2.1,2.1,0,0,1-.153.7l-.965,3.4a1.036,1.036,0,0,1-1.165.814H24.148v8.371h8.624c.917,0,1.067.158,1.067,1.07v3.35c0,.912-.2,1.067-1.067,1.067H24.148v9.945H35.007c.912,0,1.065.15,1.065,1.065Z" transform="translate(28.29 190.818)" fill="#231f20"></path><path id="Path_25504" data-name="Path 25504" d="M33.309,150.355c0,.917-.2,1.073-1.065,1.073H27.524c-.862,0-1.065-.156-1.065-1.073v-32.63c0-.912.2-1.067,1.065-1.067h8.221c3.909,0,11.826.258,11.826,9.8,0,6.547-3.909,8.426-5.785,9.391L49.347,149.4a2.276,2.276,0,0,1,.406.957c0,.311-.509.464-1.015.614l-4.265,1.22a3.855,3.855,0,0,1-.709.1c-.256,0-.662-.609-1.168-1.571l-6.853-13.653H33.309Zm1.32-18.619c3.3,0,6.091-.509,6.091-5.179,0-4.417-2.894-4.57-5.535-4.57H33.309v9.749Z" transform="translate(43.279 190.817)" fill="#231f20"></path><path id="Path_25505" data-name="Path 25505" d="M50.238,150.355c0,.917-.2,1.07-1.065,1.07H44.453c-.862,0-1.067-.153-1.067-1.07V122.746H36.738c-.714,0-.862-.148-.862-.859v-4.365c0-.712.148-.865.862-.865H57.647c1.015,0,1.27.1,1.27.561a2.179,2.179,0,0,1-.156.7L57.7,121.94a.993.993,0,0,1-1.168.807H50.238Z" transform="translate(58.683 190.818)" fill="#231f20"></path><path id="Path_25506" data-name="Path 25506" d="M60.332,150.355c0,.917-.2,1.07-1.062,1.07H46.832c-.859,0-1.062-.153-1.062-1.07v-2.738c0-.912.2-1.065,1.062-1.065h2.794V121.531H46.832c-.859,0-1.062-.153-1.062-1.065v-2.744c0-.912.2-1.065,1.062-1.065H59.27c.862,0,1.062.153,1.062,1.065v2.744c0,.912-.2,1.065-1.062,1.065H56.476v25.021H59.27c.862,0,1.062.153,1.062,1.065Z" transform="translate(74.866 190.818)" fill="#231f20"></path><path id="Path_25507" data-name="Path 25507" d="M60.3,150.355c0,.917-.15,1.07-1.015,1.07H54.513c-.859,0-1.065-.153-1.065-1.07V117.723c0-.912.206-1.065,1.065-1.065H71.16c1.017,0,1.273.1,1.273.561a2.179,2.179,0,0,1-.155.7l-.962,3.4a1.04,1.04,0,0,1-1.17.814H60.3v8.371h8.629c.915,0,1.065.158,1.065,1.07v3.35c0,.912-.2,1.067-1.065,1.067H60.3Z" transform="translate(87.425 190.818)" fill="#231f20"></path><path id="Path_25508" data-name="Path 25508" d="M76.518,150.355c0,.917-.2,1.07-1.062,1.07H63.018c-.862,0-1.065-.153-1.065-1.07v-2.738c0-.912.2-1.065,1.065-1.065h2.791V121.531H63.018c-.862,0-1.065-.153-1.065-1.065v-2.744c0-.912.2-1.065,1.065-1.065H75.456c.859,0,1.062.153,1.062,1.065v2.744c0,.912-.2,1.065-1.062,1.065h-2.8v25.021h2.8c.859,0,1.062.153,1.062,1.065Z" transform="translate(101.337 190.818)" fill="#231f20"></path><path id="Path_25509" data-name="Path 25509" d="M88.321,150.355c0,.917-.15,1.07-1.015,1.07H70.612c-.864,0-1.065-.153-1.065-1.07V117.723c0-.912.2-1.065,1.065-1.065H87.259c1.015,0,1.268.1,1.268.561a2.164,2.164,0,0,1-.153.7l-.965,3.4a1.035,1.035,0,0,1-1.165.814H76.4v8.371h8.627c.912,0,1.065.158,1.065,1.07v3.35c0,.912-.2,1.067-1.065,1.067H76.4v9.945H87.259c.912,0,1.062.15,1.062,1.065Z" transform="translate(113.759 190.818)" fill="#231f20"></path><path id="Path_25510" data-name="Path 25510" d="M87.749,116.658c9.694,0,14.77,3.144,14.77,17.2,0,14.568-5.891,17.564-14.921,17.564H79.831c-.862,0-1.065-.2-1.065-1.07V117.723c0-.912.2-1.065,1.115-1.065Zm-.3,29.285c5.735,0,7.865-2.485,7.865-12.18,0-9.085-2.182-11.623-7.865-11.623H85.619v23.8Z" transform="translate(128.838 190.818)" fill="#231f20"></path><path id="Path_25511" data-name="Path 25511" d="M91.241,123.516H90.224v-5.864H88.5v-.994h4.491v.994h-1.75Zm9.127,0H99.354v-6.194h-.045l-1.618,6.194H96.449l-1.613-6.194h-.045v6.194h-1.02v-6.858h1.848l1.415,5.39h.05l1.4-5.39h1.887Z" transform="translate(144.76 190.818)" fill="#231f20"></path></g></g></svg>